<svg id="Layer_1" enable-background="new 0 0 512.002 512.002" height="512" viewBox="0 0 512.002 512.002" width="512" xmlns="http://www.w3.org/2000/svg"><g><g><path d="m462.001 0h-200c-27.57 0-50 22.43-50 50v23.037l-27.991 16.161c-11.485 6.652-15.417 21.409-8.766 32.895 2.322 4.01 5.712 7.233 9.819 9.342l26.939 15.553v103.012c0 27.57 22.43 50 50 50h17.998v70.787c0 3.573 1.906 6.874 5 8.66l32.18 18.579c.186.107.374.208.566.303.722.357 1.296.896 1.705 1.603 1.125 1.943.46 4.439-1.471 5.558l-32.98 19.041c-3.094 1.786-5 5.087-5 8.66v28.81c0 16.542-13.458 30-30 30h-200c-16.542 0-30-13.458-30-30v-200c0-16.542 13.458-30 30-30h82.001c5.523 0 10-4.477 10-10s-4.477-10-10-10h-82.001c-27.57 0-50 22.43-50 50v200c0 27.57 22.43 50 50 50h200c27.57 0 50-22.43 50-50v-23.037l27.992-16.161c11.486-6.653 15.418-21.41 8.766-32.894-2.322-4.01-5.712-7.234-9.821-9.344l-26.937-15.551v-65.014h162.001c27.57 0 50-22.43 50-50v-200c.001-27.57-22.429-50-50-50zm30.001 250c0 16.542-13.458 30-30 30h-200c-16.542 0-30-13.458-30-30v-108.786c0-3.573-1.906-6.874-5-8.66l-32.18-18.579c-.186-.107-.375-.208-.567-.304-.722-.357-1.294-.896-1.703-1.601-1.125-1.944-.46-4.44 1.47-5.559l32.98-19.041c3.094-1.786 5-5.087 5-8.66v-28.81c0-16.542 13.458-30 30-30h200c16.542 0 30 13.458 30 30z"/><path d="m110 327.002v100c0 5.523 4.477 10 10 10s10-4.477 10-10v-40.001h40v40.001c0 5.523 4.477 10 10 10s10-4.477 10-10v-100c0-22.056-17.944-40-40-40s-40 17.944-40 40zm20 0c0-11.028 8.972-20 20-20s20 8.972 20 20v39.998h-39.999v-39.998z"/><path d="m408.584 135.069h9.859c5.523 0 10-4.477 10-10s-4.477-10-10-10h-45v-20.069c0-5.523-4.477-10-10-10s-10 4.477-10 10v20.069h-45c-5.523 0-10 4.477-10 10s4.477 10 10 10h9.859c2.393 19.784 11.836 38.104 27.159 52.506-10.606 4.736-22.535 7.424-35.114 7.424-5.523 0-10 4.477-10 10s4.477 10 10 10c19.07 0 37.363-4.918 53.096-14.059 15.732 9.14 34.026 14.059 53.096 14.059 5.523 0 10-4.477 10-10s-4.477-10-10-10c-12.578 0-24.507-2.688-35.114-7.424 15.322-14.402 24.765-32.722 27.159-52.506zm-70.052 0h49.821c-2.677 16.302-11.773 30.83-24.911 41.5-13.137-10.67-22.232-25.198-24.91-41.5z"/><path d="m177.005 232.001c5.523 0 10-4.477 10-10s-4.477-10-10-10h-.008c-5.523 0-9.996 4.477-9.996 10s4.481 10 10.004 10z"/></g></g></svg>